# xmcd CD database file
#
# Track frame offsets:
#	150
#	21637
#	50900
#	72950
#	100200
#	117700
#	143362
#	160010
#	178987
#
# Disc length: 2764 seconds
#
# Revision: 1
# Processed by: cddbd v1.5.2PL0 Copyright (c) Steve Scherf et al.
# Submitted via: CDex 1.70beta1
#
DISCID=850aca09
DTITLE=今田勝 - The Breeze And I
DYEAR=1994
DGENRE=Jazz
TTITLE0=The Breeze And I
TTITLE1=Subliminal Wind
TTITLE2=Sunflower Smile
TTITLE3=Joyful Trip
TTITLE4=Air Baloon
TTITLE5=After The Rain
TTITLE6=Horse Riding
TTITLE7=Hurricane
TTITLE8=The Summer Knows
EXTD=YEAR: 1994
EXTT0=
EXTT1=
EXTT2=
EXTT3=
EXTT4=
EXTT5=
EXTT6=
EXTT7=
EXTT8=
PLAYORDER=
